<svg id="Layer_1" data-name="Layer 1" xmlns="http://www.w3.org/2000/svg" viewBox="0 0 337.98 199.48"><defs><style>.cls-1{fill:#fff;}</style></defs><title>Logo Black</title><polygon points="46.4 22.38 30.96 65.47 30.92 65.58 15.74 22.49 15.74 22.38 0.74 22.38 22.42 78.33 20.42 73.17 22.42 78.33 26.37 78.33 39.35 78.33 61.3 22.38 46.4 22.38"/><path d="M376.69,220.28v56H362v-28a14.92,14.92,0,0,0-1.23-6.06,15.76,15.76,0,0,0-14.44-9.42,14.79,14.79,0,0,0-6,1.24,17.3,17.3,0,0,0-5,3.31,14.82,14.82,0,0,0-3.41,4.94,15.31,15.31,0,0,0-1.23,6.12,14.64,14.64,0,0,0,1.23,6,15.63,15.63,0,0,0,3.41,4.94,16.72,16.72,0,0,0,5,3.37,14.78,14.78,0,0,0,6,1.23,13.13,13.13,0,0,0,5.93-1.23h.11v.22l5.6,10-.11.11a21.42,21.42,0,0,1-13.54,4.25,28.29,28.29,0,0,1-11.19-2.24,28.72,28.72,0,0,1-9.18-6.15,29.49,29.49,0,0,1-6.21-9.18,27.67,27.67,0,0,1-2.29-11.19,28,28,0,0,1,2.29-11.3,29.27,29.27,0,0,1,15.39-15.39,27.7,27.7,0,0,1,11.19-2.29,22.66,22.66,0,0,1,10.18,2.17,21.24,21.24,0,0,1,7.5,6.27v-7.54Z" transform="translate(-251.95 -197.9)"/><path d="M433,222.52l-1.34,2.24-5.71,10.18-.11-.11a16.05,16.05,0,0,0-13.43-1.17,14.86,14.86,0,0,0-4.59,2.69,16.45,16.45,0,0,0-3.41,4.08,14.34,14.34,0,0,0-1.85,5v30.77H387.32v-56h15.22v7.27q5.93-8.17,17.35-8.17a28.71,28.71,0,0,1,13,3.13Z" transform="translate(-251.95 -197.9)"/><path d="M470.58,219.61a28.31,28.31,0,0,1,11.19,2.24,28.82,28.82,0,0,1,9.18,6.16,29.62,29.62,0,0,1,6.21,9.18,28.45,28.45,0,0,1,0,22.38,29.59,29.59,0,0,1-6.21,9.18,28.76,28.76,0,0,1-9.18,6.15,28.31,28.31,0,0,1-11.19,2.24q-11.53,0-17.57-8.5v7.61H438.24V197.9h14.88v50.47a14.8,14.8,0,0,0,1.23,6,15.78,15.78,0,0,0,3.3,4.87,15.59,15.59,0,0,0,4.92,3.3,15.21,15.21,0,0,0,6.1,1.23,14.94,14.94,0,0,0,6-1.23,15.62,15.62,0,0,0,4.92-3.3,15.82,15.82,0,0,0,3.3-4.87,15.46,15.46,0,0,0,0-12.09,16.58,16.58,0,0,0-3.3-4.92,14.51,14.51,0,0,0-4.92-3.3,15.57,15.57,0,0,0-6-1.17,15.91,15.91,0,0,0-6,1.23l-.11.11-.11-.22L456.92,224l.11-.11A21.43,21.43,0,0,1,470.58,219.61Z" transform="translate(-251.95 -197.9)"/><path d="M507.84,197.9h14.88V211H507.84Zm0,78.34v-56h14.88v56Z" transform="translate(-251.95 -197.9)"/><path d="M532.24,220.28h15.22v56H532.24Zm51.7,6.49a21.51,21.51,0,0,1,4,8.73,58.06,58.06,0,0,1,1.23,13v27.75H574V248.41q0-3.14-.17-6a13.92,13.92,0,0,0-1.17-5,7.38,7.38,0,0,0-3.25-3.42A13.43,13.43,0,0,0,563,232.7a16,16,0,0,0-7.27,1.68v.11l-.11-.11-5.48-9.67.11-.11a21,21,0,0,1,14.55-5.22Q578.23,219.39,583.94,226.77Z" transform="translate(-251.95 -197.9)"/><rect y="94.81" width="337.98" height="104.67"/><path class="cls-1" d="M302,364.57a5.84,5.84,0,0,0,1.85,4.36,6.12,6.12,0,0,0,4.42,1.79h10.86v13H308.23a21,21,0,0,1-8.23-1.62,20.74,20.74,0,0,1-6.71-4.48,21.72,21.72,0,0,1-4.53-6.66,20,20,0,0,1-1.68-8.17V346H279V333.57h8.06V313.32H302Zm17.12-31V346H310.8l-6.94-12.42Z" transform="translate(-251.95 -197.9)"/><path class="cls-1" d="M352.66,326.86a27.71,27.71,0,0,1,11.19,2.29,29.27,29.27,0,0,1,15.39,15.39,28,28,0,0,1,2.29,11.3,28.79,28.79,0,0,1-.67,6.27l-.11.22H352.32l-7.16-11.41h21.26a16.68,16.68,0,0,0-5.2-7.72,13,13,0,0,0-8.56-3,13.57,13.57,0,0,0-5.71,1.23,14.84,14.84,0,0,0-4.64,3.29,15,15,0,0,0-3.08,4.91,16.74,16.74,0,0,0-1.12,6.19,15.27,15.27,0,0,0,1,5.3,16.22,16.22,0,0,0,2.91,5,16.69,16.69,0,0,0,4.59,3.73,12.15,12.15,0,0,0,6,1.51,17.42,17.42,0,0,0,5.54-.84A10.34,10.34,0,0,0,363,366.7l.11-.11.22.11,13,5.72-.22.23a28,28,0,0,1-10.24,8.8,28.6,28.6,0,0,1-13.15,3.16,29,29,0,0,1-11.36-2.24,28.56,28.56,0,0,1-9.23-6.16,29.48,29.48,0,0,1-6.21-9.18,27.67,27.67,0,0,1-2.29-11.19,28,28,0,0,1,2.29-11.3,29.12,29.12,0,0,1,15.44-15.39A28.37,28.37,0,0,1,352.66,326.86Z" transform="translate(-251.95 -197.9)"/><path class="cls-1" d="M430.77,362.33l12.09,7.95-.11.11a28.75,28.75,0,0,1-25,14.32,28,28,0,0,1-11.3-2.29A29.28,29.28,0,0,1,391.1,367a28.44,28.44,0,0,1,0-22.38,29.28,29.28,0,0,1,15.39-15.39,28,28,0,0,1,11.3-2.29,28.75,28.75,0,0,1,25,14.32l.11.11-12.2,7.95-.11-.11a16.39,16.39,0,0,0-5.2-6.71,12.26,12.26,0,0,0-7.55-2.57,12.7,12.7,0,0,0-5.65,1.29,14.26,14.26,0,0,0-4.53,3.47,17,17,0,0,0-3,5,16.56,16.56,0,0,0-1.12,6.1,16.11,16.11,0,0,0,1.12,6,15.71,15.71,0,0,0,3,4.87,13.72,13.72,0,0,0,10.18,4.42,13.25,13.25,0,0,0,7.55-2.29,14.42,14.42,0,0,0,5.2-6.43l.11-.22Z" transform="translate(-251.95 -197.9)"/><path class="cls-1" d="M451.36,305.37h14.88l-.11,78.34H451.25Zm51.29,29.1q5,6.71,5,21.26v28H492.76V355.8q0-3-.17-5.8a13.2,13.2,0,0,0-1.17-4.91,7.42,7.42,0,0,0-3.25-3.35,13.48,13.48,0,0,0-6.38-1.23,16.69,16.69,0,0,0-7,1.79l-.11.11-.11-.22-5.37-9.69.11-.11a19.81,19.81,0,0,1,6.49-3.89,22.86,22.86,0,0,1,7.83-1.3Q497.09,327.2,502.65,334.47Z" transform="translate(-251.95 -197.9)"/><path class="cls-1" d="M519.67,383.71v-9.4h43.2v9.4Z" transform="translate(-251.95 -197.9)"/></svg>